<svg width="75" height="75" viewBox="0 0 75 75" fill="none" xmlns="http://www.w3.org/2000/svg">
<path d="M37.5 0C16.8212 0 0 16.8229 0 37.5C0 58.1771 16.8212 75 37.5 75C58.1788 75 75 58.1771 75 37.5C75 16.8229 58.1788 0 37.5 0ZM37.5 71.875C18.5455 71.875 3.12495 56.4545 3.12495 37.5C3.12495 18.5455 18.5455 3.12495 37.5 3.12495C56.4545 3.12495 71.875 18.5455 71.875 37.5C71.875 56.4545 56.4545 71.875 37.5 71.875Z" fill="white"/>
<path d="M52.4083 36.1862L30.5333 22.1237C30.0542 21.8109 29.4347 21.7941 28.9403 22.0657C28.4367 22.3403 28.1254 22.8653 28.1254 23.4375V51.5625C28.1254 52.1347 28.4367 52.6597 28.9403 52.9343C29.1722 53.061 29.4316 53.1251 29.6879 53.1251C29.9809 53.1251 30.277 53.0426 30.5333 52.8763L52.4083 38.8138C52.8539 38.527 53.1254 38.031 53.1254 37.5C53.1254 36.969 52.8539 36.4732 52.4083 36.1862ZM31.2503 48.6999V26.3001L48.6729 37.5L31.2503 48.6999Z" fill="white"/>
</svg>
